{"title":"Red-AC3-XviD-BRRip 2010 TBS","uid":6088085,"size":1568991038,"categoryP":"video","categoryS":"movies","magnet":"?xt=urn:btih:353241940604117f98c12e42e98282ecc6c1af14&amp;dn=Red-AC3-XviD-BRRip+2010+TBS&amp;tr=udp%3A%2F%2Ftracker.openbittorrent.com%3A80&amp;tr=udp%3A%2F%2Fopen.demonii.com%3A1337&amp;tr=udp%3A%2F%2Ftracker.coppersurfer.tk%3A6969&amp;tr=udp%3A%2F%2Fexodus.desync.com%3A6969","seeders":0,"leechers":0,"uploader":"FatFreddy30","files":-1,"time":1294422364,"description":"When his idyllic life is threatened by a high-tech assassin, former black-ops agent Frank Moses reassembles his old team in a last ditch effort to survive.\n &lt;a href=&quot;\nhttp://www.imdb.com/title/tt1245526/&quot; rel=&quot;nofollow&quot; target=&quot;_NEW&quot;&gt;\nhttp://www.imdb.com/title/tt1245526/&lt;/a&gt;\n\nSubs: Dutch, English (srt).\n\n\n'Red' vertelt het verhaal van Frank Moses (Bruce Willis), een voormalig CIA agent, die nu een rustig leven leidt. Totdat op een dag een hightech huurmoordenaarsteam opduikt dat hem wil vermoorden. Nu zijn identiteit bekend is en het leven van de vrouw om wie hij geeft in gevaar is, roept Frank zijn oude team weer bij elkaar in een ultieme poging te overleven.\n &lt;a href=&quot;\nhttp://www.moviemeter.nl/film/67416&quot; rel=&quot;nofollow&quot; target=&quot;_NEW&quot;&gt;\nhttp://www.moviemeter.nl/film/67416&lt;/a&gt;\n\nOndertitels: Engels, Nederlands (srt).\n\nGeneral\nComplete name                    : Red-AC3-XviD-BRRip 2010 TBS\\Red-AC3-XviD-BRRip 2010 TBS.avi\nFormat                           : AVI\nFormat/Info                      : Audio Video Interleave\nFile size                        : 1.46 GiB\nDuration                         : 1h 51mn\nOverall bit rate                 : 1 881 Kbps\nWriting application              : VirtualDubMod 1.5.4.1 (build 2178/release)\nWriting library                  : VirtualDubMod build 2178/release\nSource                           : Red.2010.720p.BluRay.x264-SiNNERS\n\nVideo\nID                               : 0\nFormat                           : MPEG-4 Visual\nFormat profile                   : Simple@L3\nFormat settings, BVOP            : No\nFormat settings, QPel            : No\nFormat settings, GMC             : No warppoints\nFormat settings, Matrix          : Default (H.263)\nCodec ID                         : XVID\nCodec ID/Hint                    : XviD\nDuration                         : 1h 51mn\nBit rate                         : 1 424 Kbps\nWidth                            : 720 pixels\nHeight                           : 304 pixels\nDisplay aspect ratio             : 2.35:1\nFrame rate                       : 23.976 fps\nResolution                       : 8 bits\nColorimetry                      : 4:2:0\nScan type                        : Progressive\nBits/(Pixel*Frame)               : 0.271\nStream size                      : 1.11 GiB (76%)\nWriting library                  : XviD 1.1.2 (UTC 2006-11-01)\n\nAudio\nID                               : 1\nFormat                           : AC-3\nFormat/Info                      : Audio Coding 3\nCodec ID                         : 2000\nDuration                         : 1h 51mn\nBit rate mode                    : Constant\nBit rate                         : 448 Kbps\nChannel(s)                       : 6 channels\nChannel positions                : Front: L C R, Surround: L R, LFE\nSampling rate                    : 48.0 KHz\nStream size                      : 356 MiB (24%)\nAlignment                        : Split accross interleaves\nInterleave, duration             : 42 ms (1.00 video frame)\nInterleave, preload duration     : 500 ms\n\nThanks to Simply ReleaseS Toppers for the Dutch subs, and  r3p0 for the sync. Awesome job peeps!\n\nBlackbeard  TBS.","torrent":{"xt":"urn:btih:353241940604117f98c12e42e98282ecc6c1af14","amp;dn":"Red-AC3-XviD-BRRip+2010+TBS","amp;tr":["udp%3A%2F%2Ftracker.openbittorrent.com%3A80","udp%3A%2F%2Fopen.demonii.com%3A1337","udp%3A%2F%2Ftracker.coppersurfer.tk%3A6969","udp%3A%2F%2Fexodus.desync.com%3A6969"],"infoHash":"353241940604117f98c12e42e98282ecc6c1af14","infoHashBuffer":{"type":"Buffer","data":[53,50,65,148,6,4,17,127,152,193,46,66,233,130,130,236,198,193,175,20]},"announce":[],"urlList":[]}}